<?xml version="1.0" standalone="no"?>
<!DOCTYPE svg PUBLIC "-//W3C//DTD SVG 20010904//EN"
 "http://www.w3.org/TR/2001/REC-SVG-20010904/DTD/svg10.dtd">
<svg version="1.0" xmlns="http://www.w3.org/2000/svg"
 width="260.000000pt" height="260.000000pt" viewBox="0 0 260.000000 260.000000"
 preserveAspectRatio="xMidYMid meet">
<metadata>
Created by potrace 1.11, written by Peter Selinger 2001-2013
</metadata>
<g transform="translate(0.000000,260.000000) scale(0.100000,-0.100000)"
fill="#000000" stroke="none">
<path d="M1380 2587 c-19 -6 -53 -29 -75 -51 l-40 -40 -88 -1 c-101 -1 -97 3
-128 -100 -12 -38 -28 -90 -37 -115 -13 -39 -18 -62 -21 -93 -1 -5 -5 -6 -9
-3 -4 2 -8 -3 -9 -13 -1 -10 -12 -51 -24 -92 -13 -41 -23 -77 -24 -81 0 -3 -3
-9 -7 -13 -4 -4 -4 -13 -2 -20 3 -7 1 -16 -5 -20 -6 -3 -11 -15 -11 -25 0 -10
-6 -21 -12 -23 -9 -4 -8 -6 2 -6 12 -1 12 -3 2 -9 -7 -5 -15 -21 -18 -35 -2
-15 -9 -39 -15 -54 -6 -16 -11 -30 -11 -33 -1 -6 -3 -14 -19 -65 -7 -22 -14
-46 -15 -53 -1 -8 -6 -21 -10 -30 -4 -9 -8 -19 -9 -22 0 -3 -9 -32 -20 -65
-10 -33 -19 -62 -20 -65 0 -3 -9 -31 -18 -62 -10 -32 -17 -60 -17 -63 0 -3 -7
-22 -15 -43 -14 -31 -51 -152 -58 -187 -2 -5 -6 -16 -10 -22 -5 -7 -6 -13 -2
-13 3 0 -1 -13 -9 -29 -9 -16 -12 -31 -9 -35 4 -3 2 -6 -4 -6 -5 0 -10 -6 -10
-12 0 -7 -11 -47 -23 -88 -13 -41 -24 -77 -25 -80 -1 -3 -7 -25 -14 -50 -7
-25 -13 -47 -13 -50 0 -3 -4 -11 -10 -17 -6 -7 -8 -13 -4 -13 4 0 0 -13 -9
-30 -9 -16 -13 -30 -9 -30 4 0 1 -7 -6 -15 -7 -8 -10 -15 -7 -15 2 0 -10 -46
-27 -102 l-32 -103 -52 -25 c-40 -19 -57 -36 -77 -72 -15 -27 -23 -48 -19 -48
3 0 2 -6 -3 -12 -13 -18 -8 -75 11 -120 51 -121 213 -152 309 -60 41 39 59 78
60 131 0 48 -21 121 -36 121 -4 0 -5 5 -2 10 3 6 1 10 -4 10 -6 0 -11 7 -11
15 0 8 5 15 11 15 5 0 7 5 4 10 -4 6 -2 16 3 23 8 10 13 25 27 77 0 3 9 32 19
65 10 33 19 65 20 70 1 6 5 15 8 21 4 6 9 21 12 35 3 13 13 44 22 69 9 25 18
53 20 63 10 43 13 55 28 95 8 23 12 42 8 42 -4 0 -1 4 6 9 7 4 14 21 16 37 2
16 5 30 6 32 1 1 3 5 5 10 1 4 4 14 8 22 5 13 58 192 68 230 2 8 7 17 10 20 3
3 11 23 16 45 24 88 54 191 60 205 3 8 7 17 8 20 1 3 5 12 8 20 4 8 23 69 42
135 41 139 40 135 48 155 3 8 17 56 32 105 15 50 29 97 32 105 8 21 14 43 15
58 1 6 5 12 10 12 4 0 8 8 8 18 0 10 9 45 20 79 25 73 50 81 90 27 42 -57 146
-82 217 -52 15 6 31 11 35 10 12 -3 78 90 80 112 0 12 2 26 3 31 2 6 4 15 5
20 1 6 1 15 0 20 -1 6 -3 17 -5 25 -13 62 -76 135 -124 144 -59 12 -88 13
-121 3z"/>
<path d="M1565 2102 c-4 -4 -10 -7 -13 -8 -24 -2 -81 -36 -103 -61 -28 -32
-40 -60 -44 -103 -2 -14 -4 -29 -5 -35 -2 -5 0 -19 4 -30 4 -11 13 -32 18 -48
13 -34 59 -74 108 -93 33 -14 38 -21 65 -102 16 -48 30 -93 31 -101 2 -7 7
-18 13 -24 15 -15 14 -43 -3 -60 -19 -18 -33 -73 -31 -117 2 -44 24 -112 34
-105 5 2 14 -7 21 -20 7 -13 17 -22 22 -19 4 3 8 1 8 -4 0 -14 49 -32 95 -36
149 -13 252 151 180 288 -21 40 -72 80 -115 91 -16 4 -26 14 -27 25 -1 11 -8
34 -17 52 -13 29 -27 68 -32 91 -1 4 -3 10 -4 15 -1 4 -2 10 -1 15 0 4 -3 7
-7 7 -4 0 -8 8 -9 18 -1 9 -2 22 -4 27 -1 6 7 30 18 54 15 31 20 59 18 95 -5
67 -7 76 -17 76 -4 0 -7 3 -6 8 4 12 -26 52 -38 52 -6 0 -19 9 -29 20 -10 11
-20 18 -23 15 -3 -3 -11 0 -19 7 -7 6 -16 8 -19 5 -3 -3 -18 -1 -34 3 -16 4
-31 5 -35 2z"/>
<path d="M1140 1396 c-14 -6 -31 -16 -38 -23 -7 -7 -18 -13 -24 -13 -6 0 -9
-3 -6 -6 3 -3 -4 -16 -16 -29 -13 -14 -23 -30 -24 -37 -8 -60 -7 -115 1 -125
5 -7 7 -13 3 -13 -8 0 23 -49 44 -70 34 -34 73 -51 127 -55 50 -4 62 -9 85
-38 15 -17 47 -54 70 -80 23 -26 48 -56 55 -66 11 -17 31 -19 220 -19 114 -1
218 -1 230 -2 17 0 24 -8 29 -35 3 -19 10 -38 15 -41 5 -3 7 -10 4 -15 -4 -5
-1 -9 6 -9 7 0 9 -3 6 -7 -4 -3 -2 -12 5 -20 6 -7 8 -16 5 -20 -4 -3 -2 -12 3
-19 6 -6 12 -20 14 -30 2 -11 16 -53 31 -94 14 -41 27 -79 28 -85 1 -5 5 -12
9 -15 4 -3 8 -17 10 -32 2 -15 7 -30 11 -34 10 -10 9 -54 -2 -54 -8 0 -17 -21
-28 -65 -10 -43 -10 -50 0 -62 6 -9 6 -13 -3 -13 -10 0 -10 -3 0 -15 7 -8 10
-22 6 -30 -3 -9 -2 -13 4 -10 6 3 10 0 10 -7 0 -22 64 -78 106 -93 43 -14 112
-12 147 6 47 24 96 83 101 121 1 3 4 9 7 12 3 4 4 30 2 59 -4 70 -43 124 -111
157 -33 16 -52 31 -52 43 0 9 -5 17 -11 17 -5 0 -8 4 -4 9 3 5 1 12 -4 16 -6
3 -8 12 -4 20 3 8 1 15 -4 15 -4 0 -19 36 -33 80 -14 44 -29 80 -33 80 -4 0
-6 4 -3 9 7 11 -25 103 -39 113 -5 4 -7 8 -4 8 4 0 -10 51 -31 113 l-38 112
-249 3 -249 2 -59 66 -59 66 1 67 c1 57 -2 73 -26 111 -48 77 -158 112 -241
76z"/>
</g>
</svg>
