<?xml version="1.0" encoding="UTF-8" standalone="no"?>
<!-- Generator: Adobe Illustrator 16.0.4, SVG Export Plug-In . SVG Version: 6.00 Build 0)  -->
<svg xmlns:dc="http://purl.org/dc/elements/1.1/" xmlns:cc="http://creativecommons.org/ns#" xmlns:rdf="http://www.w3.org/1999/02/22-rdf-syntax-ns#" xmlns:svg="http://www.w3.org/2000/svg" xmlns="http://www.w3.org/2000/svg" xmlns:sodipodi="http://sodipodi.sourceforge.net/DTD/sodipodi-0.dtd" xmlns:inkscape="http://www.inkscape.org/namespaces/inkscape" version="1.1" id="NORMAL" x="0px" y="0px" width="332.822px" height="176.656px" viewBox="0 0 332.822 176.656" enable-background="new 0 0 332.822 176.656" xml:space="preserve" inkscape:version="0.91 r13725" sodipodi:docname="logo-applicook.svg"><metadata id="metadata41"><rdf:RDF><cc:Work rdf:about=""><dc:format>image/svg+xml</dc:format><dc:type rdf:resource="http://purl.org/dc/dcmitype/StillImage"/></cc:Work></rdf:RDF></metadata><defs id="defs39"/><sodipodi:namedview pagecolor="#ffffff" bordercolor="#666666" borderopacity="1" objecttolerance="10" gridtolerance="10" guidetolerance="10" inkscape:pageopacity="0" inkscape:pageshadow="2" inkscape:window-width="1125" inkscape:window-height="730" id="namedview37" showgrid="false" inkscape:zoom="1.1026916" inkscape:cx="165.68273" inkscape:cy="71.287159" inkscape:window-x="0" inkscape:window-y="0" inkscape:window-maximized="0" inkscape:current-layer="NORMAL"/><g id="TXT" transform="matrix(1.135137,0,0,1.0844103,-32.01056,-8.1686326)"><g id="g4"><path d="m 40.718,128.42 -1.8,5.039 c -0.18,0.42 -0.479,0.601 -0.898,0.601 l -8.46,0 c -0.602,0 -0.84,-0.359 -0.66,-0.9 l 8.46,-22.918 c 2.22,-6.118 4.199,-11.998 5.699,-18.059 0.12,-0.42 0.42,-0.659 0.899,-0.659 l 11.16,0 c 0.479,0 0.779,0.239 0.899,0.659 1.5,6.061 3.479,11.939 5.699,18.059 l 8.459,22.918 c 0.181,0.541 -0.061,0.9 -0.659,0.9 l -8.459,0 c -0.42,0 -0.722,-0.181 -0.9,-0.601 l -1.8,-5.039 -17.639,0 z m 13.74,-10.859 c -1.74,-4.74 -3.66,-10.379 -4.381,-14.278 -0.18,-0.721 -0.898,-0.721 -1.08,0 -0.779,3.899 -2.639,9.479 -4.379,14.278 l -0.84,2.398 11.52,0 -0.84,-2.398 z" id="path6" inkscape:connector-curvature="0" style="fill:#3a3a39"/><path d="m 82.118,106.582 c 0.479,0.719 0.96,0.539 1.5,0.06 2.521,-2.159 5.04,-2.699 7.68,-2.699 7.979,0 12.899,5.938 12.899,15.357 0,9.479 -5.279,15.42 -13.92,15.42 -1.739,0 -2.879,-0.24 -4.021,-0.72 l -1.438,-0.602 0,13.02 c 0,0.48 -0.301,0.779 -0.78,0.779 l -7.979,0 c -0.48,0 -0.78,-0.299 -0.78,-0.779 l 0,-41.037 c 0,-0.479 0.3,-0.778 0.78,-0.778 l 4.26,0 c 0.42,0 0.72,0.18 0.9,0.539 l 0.899,1.44 z m 3.78,18.957 c 1.02,0.541 2.459,0.781 3.659,0.781 3.479,0 5.34,-2.641 5.34,-7.021 0,-4.318 -1.979,-6.898 -5.399,-6.898 -3.061,0 -4.8,2.28 -4.8,5.938 l 0,6.661 1.2,0.539 z" id="path8" inkscape:connector-curvature="0" style="fill:#3a3a39"/><path d="m 116.358,106.582 c 0.479,0.719 0.96,0.539 1.5,0.06 2.52,-2.159 5.039,-2.699 7.68,-2.699 7.979,0 12.899,5.938 12.899,15.357 0,9.479 -5.28,15.42 -13.919,15.42 -1.74,0 -2.881,-0.24 -4.021,-0.72 l -1.439,-0.602 0,13.02 c 0,0.48 -0.3,0.779 -0.779,0.779 l -7.979,0 c -0.479,0 -0.779,-0.299 -0.779,-0.779 l 0,-41.037 c 0,-0.479 0.3,-0.778 0.779,-0.778 l 4.26,0 c 0.42,0 0.72,0.18 0.898,0.539 l 0.9,1.44 z m 3.78,18.957 c 1.021,0.541 2.461,0.781 3.659,0.781 3.48,0 5.341,-2.641 5.341,-7.021 0,-4.318 -1.98,-6.898 -5.399,-6.898 -3.06,0 -4.8,2.28 -4.8,5.938 l 0,6.661 1.199,0.539 z" id="path10" inkscape:connector-curvature="0" style="fill:#3a3a39"/><path d="m 153.438,125.18 c 0,0.659 0.24,1.141 0.778,1.141 0.12,0 0.24,0 0.36,0 0.479,-0.121 0.84,0 1.021,0.42 l 2.459,6.238 c 0.18,0.479 0.061,0.84 -0.359,1.021 -1.08,0.479 -2.4,0.72 -3.479,0.72 -6.421,0 -10.319,-3.539 -10.319,-9.539 l 0,-34.019 c 0,-0.479 0.3,-0.779 0.78,-0.779 l 7.979,0 c 0.479,0 0.78,0.3 0.78,0.779 l 0,34.018 0,0 z" id="path12" inkscape:connector-curvature="0" style="fill:#3a3a39"/><g id="g14"><path d="m 173.656,133.279 c 0,0.479 -0.3,0.779 -0.78,0.779 l -7.919,0 c -0.479,0 -0.779,-0.299 -0.779,-0.779 l 0,-20.338 -3.12,0 c -0.479,0 -0.779,-0.301 -0.779,-0.781 l 0,-6.779 c 0,-0.479 0.3,-0.778 0.779,-0.778 l 11.818,0 c 0.48,0 0.78,0.299 0.78,0.778 l 0,27.898 z" id="path16" inkscape:connector-curvature="0" style="fill:#3a3a39"/><path d="m 173.477,95.242 c 0,3.42 -1.92,5.521 -5.34,5.521 -3.359,0 -5.341,-2.101 -5.341,-5.521 0,-3.479 1.98,-5.46 5.341,-5.46 3.42,0 5.34,1.98 5.34,5.46 z" id="path18" inkscape:connector-curvature="0" style="fill:#3a3a39"/><path display="none" d="m 173.477,95.126 c 0,2.973 -1.92,4.796 -5.34,4.796 -3.359,0 -5.341,-1.823 -5.341,-4.796 0,-3.022 1.98,-4.743 5.341,-4.743 3.42,0 5.34,1.72 5.34,4.743 z" id="path20" inkscape:connector-curvature="0" style="display:none;fill:#3a3a39"/></g><path d="m 199.275,134.119 c -1.68,0.479 -3.54,0.601 -5.159,0.601 -9.6,0 -15,-5.939 -15,-15.42 0,-9.419 5.34,-15.357 15.18,-15.357 1.32,0 3.061,0.12 4.801,0.601 l 3.3,0.899 c 0.54,0.18 0.72,0.479 0.54,1.02 l -1.92,6.601 c -0.181,0.479 -0.479,0.66 -0.96,0.541 l -2.4,-0.66 c -1.199,-0.361 -2.52,-0.541 -3.359,-0.541 -4.08,0 -5.88,2.58 -5.88,6.84 0,4.439 1.92,7.08 5.82,7.08 0.96,0 2.46,-0.24 3.659,-0.602 l 2.399,-0.601 c 0.479,-0.119 0.779,0.062 0.96,0.541 l 1.979,6.539 c 0.18,0.539 0,0.84 -0.54,0.959 l -3.42,0.959 z" id="path22" inkscape:connector-curvature="0" style="fill:#3a3a39"/><path d="m 236.354,119.3 c 0,9.479 -5.579,15.42 -14.579,15.42 -9.061,0 -14.64,-5.939 -14.64,-15.42 0,-9.357 5.579,-15.357 14.64,-15.357 9,-0.002 14.579,5.998 14.579,15.357 z m -19.918,0 c 0,4.381 2.04,7.021 5.34,7.021 3.24,0 5.28,-2.641 5.28,-7.021 0,-4.318 -2.04,-6.898 -5.28,-6.898 -3.3,-0.002 -5.34,2.578 -5.34,6.898 z" id="path24" inkscape:connector-curvature="0" style="fill:#3a3a39"/><path d="m 269.833,119.3 c 0,9.479 -5.579,15.42 -14.578,15.42 -9.06,0 -14.64,-5.939 -14.64,-15.42 0,-9.357 5.58,-15.357 14.64,-15.357 8.999,-0.002 14.578,5.998 14.578,15.357 z m -19.918,0 c 0,4.381 2.04,7.021 5.34,7.021 3.24,0 5.28,-2.641 5.28,-7.021 0,-4.318 -2.04,-6.898 -5.28,-6.898 -3.3,-0.002 -5.34,2.578 -5.34,6.898 z" id="path26" inkscape:connector-curvature="0" style="fill:#3a3a39"/><path d="m 303.853,133.158 c 0.3,0.541 0.061,0.9 -0.54,0.9 l -8.579,0 c -0.48,0 -0.72,-0.181 -0.96,-0.539 l -3.24,-6.42 c -1.2,-2.222 -2.46,-3.779 -5.22,-3.779 l -0.479,0 0,9.959 c 0,0.479 -0.301,0.779 -0.779,0.779 l -7.979,0 c -0.479,0 -0.78,-0.3 -0.78,-0.779 l 0,-42.117 c 0,-0.479 0.301,-0.779 0.78,-0.779 l 7.979,0 c 0.479,0 0.779,0.3 0.779,0.779 l 0,23.818 0.54,0 c 2.579,0 3.659,-1.98 4.8,-4.14 l 2.939,-5.7 c 0.24,-0.359 0.48,-0.539 0.96,-0.539 l 8.58,0 c 0.6,0 0.84,0.358 0.54,0.899 l -4.801,9.358 c -1.079,2.04 -2.521,3.18 -4.379,3.898 -0.182,0.062 -0.24,0.36 0,0.48 1.858,0.84 3.778,2.1 4.738,4.02 l 5.101,9.902 z" id="path28" inkscape:connector-curvature="0" style="fill:#3a3a39"/></g></g><g id="TOQUE" transform="matrix(1.135137,0,0,1.0844103,-32.01056,-8.1686326)"><g id="g31"><path d="M 119.401,46.276 C 116.66,36.474 107.666,29.459 97.173,29.459 c -10.496,0 -19.494,7.017 -22.237,16.816 -7.584,2.141 -13.099,9.126 -13.099,17.29 0,8.284 5.703,15.276 13.438,17.352 l 0,19.004 43.781,0 0,-19.004 c 7.732,-2.075 13.437,-9.067 13.437,-17.352 0,-8.162 -5.512,-15.148 -13.092,-17.289 z m -5.114,25.729 -4.769,0 0,18.378 -24.704,0 0,-8.831 5.742,-9.547 -10.512,0 c -4.697,0 -8.667,-3.864 -8.667,-8.438 0,-4.434 3.47,-8.125 7.898,-8.407 l 3.978,-0.253 0.458,-3.959 C 84.498,44.136 90.286,39 97.174,39 c 6.883,0 12.665,5.137 13.452,11.948 l 0.458,3.959 3.979,0.253 c 4.426,0.282 7.893,3.975 7.893,8.407 -0.002,4.573 -3.971,8.438 -8.669,8.438 z" id="path33" inkscape:connector-curvature="0" style="fill:#3a3a39"/><path d="m 132.046,92.457 1.536,-6.191 c -4.271,2.678 -9.216,4.117 -14.383,4.117 0,0 -0.002,0 -0.003,0 l -43.918,0 0,9.539 43.918,0.002 c 7.261,0 14.028,-2.12 19.724,-5.761 l -6.874,-1.706 z" id="path35" inkscape:connector-curvature="0" style="fill:#e3000b"/></g></g></svg>